<?xml version="1.0" encoding="UTF-8"?><svg xmlns="http://www.w3.org/2000/svg" xmlns:xlink="http://www.w3.org/1999/xlink" width="224.87999pt" zoomAndPan="magnify" viewBox="0 0 224.87999 98.999996" height="98.999996pt" preserveAspectRatio="xMidYMid meet" version="1.2"><defs><g/><clipPath xml:id="clip1" id="clip1"><path d="M 213 43 L 224.761719 43 L 224.761719 64 L 213 64 Z M 213 43 "/></clipPath></defs><g xml:id="surface1" id="surface1"><g style="fill:rgb(0%,0%,0%);fill-opacity:1;"><g transform="translate(18.270628, 65.844406)"><path style="stroke:none;" d="M 12.421875 -32.71875 C 12.597656 -32.71875 12.753906 -32.65625 12.890625 -32.53125 C 13.035156 -32.40625 13.113281 -32.269531 13.125 -32.125 C 13.144531 -31.820312 13.140625 -31.53125 13.109375 -31.25 C 13.085938 -30.957031 13.046875 -30.679688 12.984375 -30.421875 C 12.960938 -30.304688 12.953125 -30.195312 12.953125 -30.09375 C 12.242188 -26.863281 11.351562 -23.707031 10.28125 -20.625 C 10.1875 -20.269531 10.140625 -19.914062 10.140625 -19.5625 C 10.171875 -19.125 10.085938 -18.71875 9.890625 -18.34375 C 9.441406 -17.664062 9.078125 -16.960938 8.796875 -16.234375 C 6.972656 -11.023438 5.015625 -5.878906 2.921875 -0.796875 C 1.148438 3.554688 -0.847656 7.8125 -3.078125 11.96875 C -3.691406 13.0625 -4.34375 14.140625 -5.03125 15.203125 C -5.375 15.671875 -5.753906 16.101562 -6.171875 16.5 C -6.546875 16.8125 -6.984375 16.898438 -7.484375 16.765625 C -7.992188 16.640625 -8.238281 16.3125 -8.21875 15.78125 C -8.15625 15.144531 -8.015625 14.53125 -7.796875 13.9375 C -6.515625 10.375 -5.085938 6.867188 -3.515625 3.421875 C -0.648438 -3.109375 2.679688 -9.382812 6.484375 -15.40625 C 7.171875 -16.550781 7.703125 -17.742188 8.078125 -18.984375 C 8.753906 -21.015625 9.390625 -23.046875 9.984375 -25.078125 C 10.578125 -27.117188 11.09375 -29.175781 11.53125 -31.25 C 11.59375 -31.582031 11.671875 -31.921875 11.765625 -32.265625 C 11.878906 -32.566406 12.097656 -32.71875 12.421875 -32.71875 Z M -5.40625 12.984375 C -3.550781 9.617188 -1.867188 6.191406 -0.359375 2.703125 C 1.148438 -0.785156 2.539062 -4.34375 3.8125 -7.96875 C 3.789062 -7.957031 3.769531 -7.925781 3.75 -7.875 C 3.6875 -7.84375 3.628906 -7.796875 3.578125 -7.734375 C 3.429688 -7.484375 3.289062 -7.234375 3.15625 -6.984375 C 1.488281 -3.898438 -0.0507812 -0.753906 -1.46875 2.453125 C -2.882812 5.660156 -4.234375 8.882812 -5.515625 12.125 C -5.535156 12.164062 -5.546875 12.195312 -5.546875 12.21875 C -5.597656 12.3125 -5.625 12.421875 -5.625 12.546875 C -5.625 12.679688 -5.550781 12.828125 -5.40625 12.984375 Z M 71.65625 -33.453125 C 71.65625 -33.378906 71.613281 -33.300781 71.53125 -33.21875 C 71.457031 -33.132812 71.367188 -33.070312 71.265625 -33.03125 C 71.171875 -32.988281 71.082031 -32.992188 71 -33.046875 C 70.488281 -33.359375 69.941406 -33.566406 69.359375 -33.671875 C 68.785156 -33.773438 68.210938 -33.863281 67.640625 -33.9375 C 67.210938 -33.945312 66.789062 -33.992188 66.375 -34.078125 C 64.820312 -34.304688 63.273438 -34.503906 61.734375 -34.671875 C 56.648438 -35.085938 51.550781 -35.3125 46.4375 -35.34375 C 41.519531 -35.40625 36.59375 -35.296875 31.65625 -35.015625 C 26.101562 -34.742188 20.554688 -34.332031 15.015625 -33.78125 C 9.921875 -33.320312 4.835938 -32.769531 -0.234375 -32.125 C -0.546875 -32.070312 -0.875 -32.03125 -1.21875 -32 C -3.144531 -31.738281 -5.070312 -31.457031 -7 -31.15625 C -8.9375 -30.863281 -10.867188 -30.5 -12.796875 -30.0625 C -12.953125 -30.019531 -13.109375 -29.984375 -13.265625 -29.953125 C -14.015625 -29.765625 -14.765625 -29.5625 -15.515625 -29.34375 C -16.273438 -29.132812 -17 -28.847656 -17.6875 -28.484375 C -17.789062 -28.429688 -17.898438 -28.394531 -18.015625 -28.375 C -18.171875 -28.351562 -18.316406 -28.359375 -18.453125 -28.390625 C -18.597656 -28.421875 -18.707031 -28.503906 -18.78125 -28.640625 C -18.863281 -28.785156 -18.875 -28.921875 -18.8125 -29.046875 C -18.757812 -29.171875 -18.660156 -29.273438 -18.515625 -29.359375 C -18.066406 -29.585938 -17.59375 -29.789062 -17.09375 -29.96875 C -15.863281 -30.382812 -14.617188 -30.734375 -13.359375 -31.015625 C -12.109375 -31.304688 -10.847656 -31.5625 -9.578125 -31.78125 C -5.921875 -32.40625 -2.265625 -32.945312 1.390625 -33.40625 C 5.054688 -33.875 8.738281 -34.285156 12.4375 -34.640625 C 17.632812 -35.171875 22.832031 -35.59375 28.03125 -35.90625 C 32.5625 -36.207031 37.097656 -36.378906 41.640625 -36.421875 C 44.960938 -36.460938 48.285156 -36.429688 51.609375 -36.328125 C 54.941406 -36.234375 58.265625 -36.035156 61.578125 -35.734375 C 64.609375 -35.421875 67.617188 -34.957031 70.609375 -34.34375 C 70.890625 -34.28125 71.144531 -34.179688 71.375 -34.046875 C 71.570312 -33.898438 71.664062 -33.703125 71.65625 -33.453125 Z M 71.65625 -33.453125 "/></g></g><g style="fill:rgb(0%,0%,0%);fill-opacity:1;"><g transform="translate(28.156281, 65.844406)"><path style="stroke:none;" d="M 10.953125 -6.296875 C 10.796875 -6.148438 10.628906 -6.015625 10.453125 -5.890625 C 9.867188 -5.535156 9.34375 -5.253906 8.875 -5.046875 C 8.414062 -4.835938 7.875 -4.625 7.25 -4.40625 C 6.3125 -4.132812 5.707031 -4.195312 5.4375 -4.59375 C 5.175781 -5 5.132812 -5.566406 5.3125 -6.296875 C 5.570312 -7.316406 5.71875 -8.066406 5.75 -8.546875 C 5.789062 -9.023438 5.632812 -9.1875 5.28125 -9.03125 C 4.925781 -8.882812 4.28125 -8.394531 3.34375 -7.5625 C 2.039062 -6.4375 0.925781 -5.148438 0 -3.703125 C -0.113281 -3.503906 -0.253906 -3.335938 -0.421875 -3.203125 C -0.597656 -3.078125 -0.8125 -3.015625 -1.0625 -3.015625 C -1.3125 -3.015625 -1.488281 -3.078125 -1.59375 -3.203125 C -1.695312 -3.335938 -1.703125 -3.507812 -1.609375 -3.71875 C -1.078125 -4.894531 -0.53125 -6.054688 0.03125 -7.203125 C 0.976562 -9.203125 1.914062 -11.191406 2.84375 -13.171875 C 3.539062 -14.660156 4.226562 -16.144531 4.90625 -17.625 C 5.3125 -18.5 5.710938 -19.375 6.109375 -20.25 C 6.148438 -20.320312 6.191406 -20.394531 6.234375 -20.46875 C 6.273438 -20.570312 6.316406 -20.671875 6.359375 -20.765625 C 6.410156 -20.867188 6.46875 -20.976562 6.53125 -21.09375 C 6.582031 -21.195312 6.679688 -21.28125 6.828125 -21.34375 C 6.984375 -21.40625 7.132812 -21.441406 7.28125 -21.453125 C 7.425781 -21.472656 7.539062 -21.46875 7.625 -21.4375 C 7.738281 -21.351562 7.800781 -21.265625 7.8125 -21.171875 C 7.832031 -21.085938 7.820312 -20.992188 7.78125 -20.890625 C 7.757812 -20.867188 7.75 -20.835938 7.75 -20.796875 C 7.570312 -20.265625 7.382812 -19.753906 7.1875 -19.265625 C 6.039062 -16.503906 4.789062 -13.789062 3.4375 -11.125 C 3.34375 -10.9375 3.226562 -10.71875 3.09375 -10.46875 C 2.894531 -10.113281 2.707031 -9.757812 2.53125 -9.40625 C 2.363281 -9.0625 2.304688 -8.832031 2.359375 -8.71875 C 2.421875 -8.601562 2.691406 -8.691406 3.171875 -8.984375 C 3.316406 -9.085938 3.445312 -9.1875 3.5625 -9.28125 C 3.9375 -9.53125 4.3125 -9.769531 4.6875 -10 C 5.007812 -10.21875 5.367188 -10.335938 5.765625 -10.359375 C 6.710938 -10.421875 7.242188 -9.988281 7.359375 -9.0625 C 7.398438 -8.695312 7.382812 -8.332031 7.3125 -7.96875 C 7.238281 -7.613281 7.15625 -7.257812 7.0625 -6.90625 C 7.039062 -6.8125 7.019531 -6.710938 7 -6.609375 C 6.84375 -6.003906 6.882812 -5.65625 7.125 -5.5625 C 7.375 -5.46875 7.722656 -5.515625 8.171875 -5.703125 C 8.617188 -5.898438 9.070312 -6.128906 9.53125 -6.390625 C 9.84375 -6.554688 10.117188 -6.695312 10.359375 -6.8125 C 10.597656 -6.925781 10.773438 -6.976562 10.890625 -6.96875 C 11.109375 -6.925781 11.207031 -6.832031 11.1875 -6.6875 C 11.164062 -6.550781 11.085938 -6.421875 10.953125 -6.296875 Z M 10.953125 -6.296875 "/></g></g><g style="fill:rgb(0%,0%,0%);fill-opacity:1;"><g transform="translate(38.446532, 65.844406)"><path style="stroke:none;" d="M 7.6875 -5.171875 C 7.164062 -4.660156 6.554688 -4.222656 5.859375 -3.859375 C 5.171875 -3.492188 4.59375 -3.253906 4.125 -3.140625 C 3.65625 -3.035156 3.175781 -2.972656 2.6875 -2.953125 C 1.894531 -2.921875 1.164062 -3.03125 0.5 -3.28125 C -0.59375 -3.71875 -0.972656 -4.554688 -0.640625 -5.796875 C -0.316406 -6.867188 0.320312 -7.707031 1.28125 -8.3125 C 2.238281 -8.914062 3.234375 -9.207031 4.265625 -9.1875 C 4.265625 -9.1875 4.273438 -9.1875 4.296875 -9.1875 C 4.554688 -9.207031 4.800781 -9.191406 5.03125 -9.140625 C 5.425781 -8.992188 5.675781 -8.757812 5.78125 -8.4375 C 5.894531 -8.113281 5.828125 -7.753906 5.578125 -7.359375 C 4.992188 -6.484375 4.207031 -5.992188 3.21875 -5.890625 C 2.5625 -5.828125 1.929688 -5.863281 1.328125 -6 C 1.203125 -6.007812 1.09375 -5.972656 1 -5.890625 C 0.914062 -5.816406 0.863281 -5.71875 0.84375 -5.59375 C 0.664062 -4.820312 0.90625 -4.328125 1.5625 -4.109375 C 2.375 -3.835938 3.21875 -3.835938 4.09375 -4.109375 C 5.09375 -4.429688 6.046875 -5.023438 6.953125 -5.890625 C 7.867188 -6.765625 8.394531 -7.171875 8.53125 -7.109375 C 8.675781 -7.054688 8.722656 -6.890625 8.671875 -6.609375 C 8.535156 -6.171875 8.207031 -5.691406 7.6875 -5.171875 Z M 1.9375 -7.359375 C 1.882812 -7.296875 1.847656 -7.222656 1.828125 -7.140625 C 1.804688 -7.066406 1.835938 -7 1.921875 -6.9375 C 2.234375 -6.757812 2.570312 -6.691406 2.9375 -6.734375 C 3.3125 -6.785156 3.625 -6.925781 3.875 -7.15625 C 4.132812 -7.382812 4.242188 -7.664062 4.203125 -8 C 4.179688 -8.113281 4.117188 -8.1875 4.015625 -8.21875 C 3.921875 -8.25 3.820312 -8.257812 3.71875 -8.25 C 3.050781 -8.132812 2.457031 -7.835938 1.9375 -7.359375 Z M 1.9375 -7.359375 "/></g></g><g style="fill:rgb(0%,0%,0%);fill-opacity:1;"><g transform="translate(46.295714, 65.844406)"><path style="stroke:none;" d=""/></g></g><g style="fill:rgb(0%,0%,0%);fill-opacity:1;"><g transform="translate(56.491558, 65.844406)"><path style="stroke:none;" d="M 75.34375 -35.3125 C 75.101562 -35.257812 74.890625 -35.265625 74.703125 -35.328125 C 74.515625 -35.398438 74.335938 -35.488281 74.171875 -35.59375 C 74.097656 -35.625 74.03125 -35.664062 73.96875 -35.71875 C 71.675781 -36.957031 69.242188 -37.882812 66.671875 -38.5 C 59.972656 -40.101562 53.15625 -39.4375 46.21875 -36.5 C 43.675781 -35.4375 41.238281 -34.148438 38.90625 -32.640625 C 36.582031 -31.140625 34.316406 -29.5 32.109375 -27.71875 C 28.546875 -24.832031 25.265625 -21.671875 22.265625 -18.234375 C 19.265625 -14.796875 16.5 -11.128906 13.96875 -7.234375 C 13.050781 -5.847656 12.171875 -4.441406 11.328125 -3.015625 C 11.304688 -2.972656 11.28125 -2.9375 11.25 -2.90625 C 10.601562 -1.894531 10.070312 -0.820312 9.65625 0.3125 C 9.457031 0.84375 9.210938 1.347656 8.921875 1.828125 C 8.554688 2.453125 8.0625 2.6875 7.4375 2.53125 C 7.070312 2.457031 6.921875 2.226562 6.984375 1.84375 C 7.023438 1.570312 7.113281 1.304688 7.25 1.046875 C 7.925781 -0.273438 8.519531 -1.617188 9.03125 -2.984375 C 9.550781 -4.347656 10.035156 -5.722656 10.484375 -7.109375 C 10.597656 -7.472656 10.71875 -7.820312 10.84375 -8.15625 C 13.550781 -16.09375 16.0625 -24.082031 18.375 -32.125 C 18.425781 -32.289062 18.460938 -32.460938 18.484375 -32.640625 C 18.484375 -32.722656 18.488281 -32.816406 18.5 -32.921875 C 18.28125 -32.898438 18.113281 -32.828125 18 -32.703125 C 17.882812 -32.585938 17.785156 -32.453125 17.703125 -32.296875 C 17.691406 -32.234375 17.660156 -32.175781 17.609375 -32.125 C 17.472656 -31.925781 17.347656 -31.710938 17.234375 -31.484375 C 15.921875 -29.429688 14.613281 -27.367188 13.3125 -25.296875 C 11.269531 -21.960938 9.226562 -18.632812 7.1875 -15.3125 C 4.238281 -10.5 1.269531 -5.675781 -1.71875 -0.84375 C -2.375 0.21875 -3.066406 1.253906 -3.796875 2.265625 C -3.972656 2.523438 -4.140625 2.773438 -4.296875 3.015625 C -4.566406 3.472656 -4.953125 3.75 -5.453125 3.84375 C -5.597656 3.863281 -5.726562 3.859375 -5.84375 3.828125 C -5.957031 3.796875 -6.035156 3.722656 -6.078125 3.609375 C -6.117188 3.523438 -6.117188 3.425781 -6.078125 3.3125 C -6.035156 3.207031 -5.984375 3.113281 -5.921875 3.03125 C 1.203125 -8.625 8.34375 -20.269531 15.5 -31.90625 C 16.164062 -32.9375 16.859375 -33.945312 17.578125 -34.9375 C 17.742188 -35.15625 17.894531 -35.375 18.03125 -35.59375 C 18.445312 -36.195312 18.992188 -36.59375 19.671875 -36.78125 C 20.078125 -36.863281 20.398438 -36.804688 20.640625 -36.609375 C 20.878906 -36.410156 20.988281 -36.085938 20.96875 -35.640625 C 20.851562 -34.359375 20.597656 -33.085938 20.203125 -31.828125 C 18.242188 -25.046875 16.144531 -18.316406 13.90625 -11.640625 C 13.882812 -11.554688 13.859375 -11.484375 13.828125 -11.421875 C 13.742188 -11.222656 13.6875 -11.023438 13.65625 -10.828125 C 13.625 -10.628906 13.664062 -10.410156 13.78125 -10.171875 C 13.9375 -10.390625 14.097656 -10.597656 14.265625 -10.796875 C 14.597656 -11.210938 14.910156 -11.625 15.203125 -12.03125 C 18.734375 -17.03125 22.753906 -21.554688 27.265625 -25.609375 C 29.859375 -27.941406 32.546875 -30.09375 35.328125 -32.0625 C 38.109375 -34.03125 41.035156 -35.71875 44.109375 -37.125 C 50.441406 -39.957031 56.800781 -41.007812 63.1875 -40.28125 C 67.226562 -39.789062 70.988281 -38.625 74.46875 -36.78125 C 74.550781 -36.738281 74.644531 -36.695312 74.75 -36.65625 C 74.925781 -36.570312 75.09375 -36.476562 75.25 -36.375 C 75.40625 -36.28125 75.535156 -36.132812 75.640625 -35.9375 C 75.648438 -35.90625 75.65625 -35.851562 75.65625 -35.78125 C 75.65625 -35.71875 75.648438 -35.65625 75.640625 -35.59375 C 75.597656 -35.53125 75.550781 -35.472656 75.5 -35.421875 C 75.457031 -35.367188 75.40625 -35.332031 75.34375 -35.3125 Z M 75.34375 -35.3125 "/></g></g><g style="fill:rgb(0%,0%,0%);fill-opacity:1;"><g transform="translate(76.04708, 65.844406)"><path style="stroke:none;" d="M 2.140625 -3.203125 L 2.109375 -3.203125 C 0.804688 -3.210938 -0.0507812 -3.5 -0.46875 -4.0625 C -0.882812 -4.625 -0.867188 -5.375 -0.421875 -6.3125 C -0.0351562 -7.019531 0.441406 -7.640625 1.015625 -8.171875 C 1.210938 -8.359375 1.414062 -8.503906 1.625 -8.609375 C 1.832031 -8.710938 2.066406 -8.765625 2.328125 -8.765625 C 2.472656 -8.796875 2.644531 -8.769531 2.84375 -8.6875 C 2.90625 -8.675781 2.96875 -8.65625 3.03125 -8.625 C 3.1875 -8.65625 3.335938 -8.703125 3.484375 -8.765625 C 3.515625 -8.796875 3.5625 -8.820312 3.625 -8.84375 C 3.925781 -8.957031 4.242188 -9.003906 4.578125 -8.984375 C 4.710938 -8.984375 4.851562 -8.984375 5 -8.984375 C 5.53125 -8.898438 5.925781 -8.675781 6.1875 -8.3125 C 6.457031 -7.957031 6.554688 -7.515625 6.484375 -6.984375 C 6.429688 -6.671875 6.332031 -6.375 6.1875 -6.09375 C 5.144531 -4.238281 3.828125 -3.273438 2.234375 -3.203125 Z M 4.28125 -8.03125 C 3.570312 -8.0625 2.9375 -7.859375 2.375 -7.421875 C 1.820312 -6.984375 1.410156 -6.476562 1.140625 -5.90625 C 0.878906 -5.34375 0.804688 -4.878906 0.921875 -4.515625 C 1.046875 -4.148438 1.421875 -4.046875 2.046875 -4.203125 C 2.765625 -4.421875 3.394531 -4.828125 3.9375 -5.421875 C 4.476562 -6.015625 4.804688 -6.578125 4.921875 -7.109375 C 5.046875 -7.648438 4.832031 -7.957031 4.28125 -8.03125 Z M 4.28125 -8.03125 "/></g></g><g style="fill:rgb(0%,0%,0%);fill-opacity:1;"><g transform="translate(83.208447, 65.844406)"><path style="stroke:none;" d="M 8.4375 -6.515625 C 7.226562 -5.097656 6.046875 -4.050781 4.890625 -3.375 C 3.734375 -2.695312 2.492188 -2.472656 1.171875 -2.703125 C -0.140625 -2.929688 -0.679688 -3.816406 -0.453125 -5.359375 C -0.285156 -6.128906 -0.0625 -6.882812 0.21875 -7.625 C 0.90625 -9.34375 1.609375 -11.050781 2.328125 -12.75 C 2.554688 -13.363281 2.800781 -13.984375 3.0625 -14.609375 C 3.125 -14.742188 3.179688 -14.878906 3.234375 -15.015625 C 3.335938 -15.234375 3.4375 -15.460938 3.53125 -15.703125 C 3.675781 -16.097656 3.519531 -16.300781 3.0625 -16.3125 C 2.800781 -16.3125 2.546875 -16.3125 2.296875 -16.3125 C 2.179688 -16.3125 2.050781 -16.3125 1.90625 -16.3125 C 1.769531 -16.300781 1.628906 -16.285156 1.484375 -16.265625 C 1.253906 -16.242188 1.023438 -16.234375 0.796875 -16.234375 C 0.566406 -16.234375 0.351562 -16.289062 0.15625 -16.40625 C 0.09375 -16.425781 0.046875 -16.460938 0.015625 -16.515625 C -0.015625 -16.566406 -0.03125 -16.625 -0.03125 -16.6875 C -0.0078125 -16.71875 0.0195312 -16.757812 0.0625 -16.8125 C 0.101562 -16.863281 0.15625 -16.894531 0.21875 -16.90625 C 0.414062 -16.988281 0.625 -17.050781 0.84375 -17.09375 C 1.394531 -17.113281 1.945312 -17.132812 2.5 -17.15625 C 2.71875 -17.15625 2.90625 -17.15625 3.0625 -17.15625 C 3.425781 -17.15625 3.691406 -17.164062 3.859375 -17.1875 C 4.035156 -17.21875 4.175781 -17.3125 4.28125 -17.46875 C 4.394531 -17.632812 4.523438 -17.882812 4.671875 -18.21875 C 4.753906 -18.394531 4.851562 -18.59375 4.96875 -18.8125 C 5.257812 -19.445312 5.554688 -20.09375 5.859375 -20.75 C 5.992188 -21.039062 6.132812 -21.328125 6.28125 -21.609375 C 6.394531 -21.890625 6.578125 -22.101562 6.828125 -22.25 C 7.066406 -22.375 7.28125 -22.367188 7.46875 -22.234375 C 7.519531 -22.191406 7.5625 -22.128906 7.59375 -22.046875 C 7.625 -21.972656 7.640625 -21.90625 7.640625 -21.84375 C 7.640625 -21.488281 7.550781 -21.140625 7.375 -20.796875 C 7.332031 -20.722656 7.289062 -20.640625 7.25 -20.546875 C 7.132812 -20.222656 7.007812 -19.894531 6.875 -19.5625 C 6.613281 -18.945312 6.363281 -18.320312 6.125 -17.6875 C 6.0625 -17.5625 6.054688 -17.453125 6.109375 -17.359375 C 6.171875 -17.273438 6.265625 -17.234375 6.390625 -17.234375 C 7.023438 -17.210938 7.648438 -17.203125 8.265625 -17.203125 C 8.578125 -17.203125 8.890625 -17.203125 9.203125 -17.203125 C 10.191406 -17.191406 10.585938 -17.054688 10.390625 -16.796875 C 10.253906 -16.640625 10.109375 -16.550781 9.953125 -16.53125 C 9.796875 -16.507812 9.632812 -16.507812 9.46875 -16.53125 C 9.375 -16.53125 9.273438 -16.53125 9.171875 -16.53125 C 8.171875 -16.46875 7.175781 -16.425781 6.1875 -16.40625 C 5.726562 -16.40625 5.421875 -16.203125 5.265625 -15.796875 C 5.097656 -15.398438 4.941406 -15.003906 4.796875 -14.609375 C 4.566406 -14.085938 4.351562 -13.578125 4.15625 -13.078125 C 3.957031 -12.609375 3.757812 -12.132812 3.5625 -11.65625 C 3.050781 -10.457031 2.554688 -9.25 2.078125 -8.03125 C 1.785156 -7.238281 1.550781 -6.425781 1.375 -5.59375 C 1 -4.09375 1.582031 -3.519531 3.125 -3.875 C 4.632812 -4.226562 6.21875 -5.316406 7.875 -7.140625 C 8.59375 -7.597656 8.78125 -7.390625 8.4375 -6.515625 Z M 8.4375 -6.515625 "/></g></g><g style="fill:rgb(0%,0%,0%);fill-opacity:1;"><g transform="translate(90.868816, 65.844406)"><path style="stroke:none;" d="M 7.6875 -5.171875 C 7.164062 -4.660156 6.554688 -4.222656 5.859375 -3.859375 C 5.171875 -3.492188 4.59375 -3.253906 4.125 -3.140625 C 3.65625 -3.035156 3.175781 -2.972656 2.6875 -2.953125 C 1.894531 -2.921875 1.164062 -3.03125 0.5 -3.28125 C -0.59375 -3.71875 -0.972656 -4.554688 -0.640625 -5.796875 C -0.316406 -6.867188 0.320312 -7.707031 1.28125 -8.3125 C 2.238281 -8.914062 3.234375 -9.207031 4.265625 -9.1875 C 4.265625 -9.1875 4.273438 -9.1875 4.296875 -9.1875 C 4.554688 -9.207031 4.800781 -9.191406 5.03125 -9.140625 C 5.425781 -8.992188 5.675781 -8.757812 5.78125 -8.4375 C 5.894531 -8.113281 5.828125 -7.753906 5.578125 -7.359375 C 4.992188 -6.484375 4.207031 -5.992188 3.21875 -5.890625 C 2.5625 -5.828125 1.929688 -5.863281 1.328125 -6 C 1.203125 -6.007812 1.09375 -5.972656 1 -5.890625 C 0.914062 -5.816406 0.863281 -5.71875 0.84375 -5.59375 C 0.664062 -4.820312 0.90625 -4.328125 1.5625 -4.109375 C 2.375 -3.835938 3.21875 -3.835938 4.09375 -4.109375 C 5.09375 -4.429688 6.046875 -5.023438 6.953125 -5.890625 C 7.867188 -6.765625 8.394531 -7.171875 8.53125 -7.109375 C 8.675781 -7.054688 8.722656 -6.890625 8.671875 -6.609375 C 8.535156 -6.171875 8.207031 -5.691406 7.6875 -5.171875 Z M 1.9375 -7.359375 C 1.882812 -7.296875 1.847656 -7.222656 1.828125 -7.140625 C 1.804688 -7.066406 1.835938 -7 1.921875 -6.9375 C 2.234375 -6.757812 2.570312 -6.691406 2.9375 -6.734375 C 3.3125 -6.785156 3.625 -6.925781 3.875 -7.15625 C 4.132812 -7.382812 4.242188 -7.664062 4.203125 -8 C 4.179688 -8.113281 4.117188 -8.1875 4.015625 -8.21875 C 3.921875 -8.25 3.820312 -8.257812 3.71875 -8.25 C 3.050781 -8.132812 2.457031 -7.835938 1.9375 -7.359375 Z M 1.9375 -7.359375 "/></g></g><g style="fill:rgb(0%,0%,0%);fill-opacity:1;"><g transform="translate(98.717998, 65.844406)"><path style="stroke:none;" d="M 6.90625 -21.4375 C 6.957031 -21.507812 7.054688 -21.566406 7.203125 -21.609375 C 7.347656 -21.660156 7.5 -21.695312 7.65625 -21.71875 C 7.8125 -21.738281 7.945312 -21.734375 8.0625 -21.703125 C 8.1875 -21.671875 8.238281 -21.617188 8.21875 -21.546875 C 8.125 -21.128906 7.976562 -20.722656 7.78125 -20.328125 C 7.757812 -20.273438 7.722656 -20.207031 7.671875 -20.125 C 6.929688 -18.394531 6.175781 -16.679688 5.40625 -14.984375 C 5.28125 -14.734375 5.171875 -14.484375 5.078125 -14.234375 C 4.796875 -13.660156 4.445312 -12.960938 4.03125 -12.140625 C 3.570312 -11.265625 3.175781 -10.460938 2.84375 -9.734375 C 3.15625 -10.109375 3.550781 -10.382812 4.03125 -10.5625 C 4.507812 -10.738281 4.875 -10.828125 5.125 -10.828125 C 6.082031 -10.804688 6.609375 -10.332031 6.703125 -9.40625 C 6.859375 -8.351562 6.671875 -7.28125 6.140625 -6.1875 C 5.609375 -5.101562 4.90625 -4.210938 4.03125 -3.515625 C 3.289062 -3.109375 2.585938 -2.925781 1.921875 -2.96875 C 1.265625 -3.019531 0.679688 -3.34375 0.171875 -3.9375 C 0.109375 -3.9375 0.046875 -3.90625 -0.015625 -3.84375 C -0.0859375 -3.789062 -0.164062 -3.722656 -0.25 -3.640625 C -0.34375 -3.523438 -0.445312 -3.4375 -0.5625 -3.375 C -0.644531 -3.332031 -0.726562 -3.320312 -0.8125 -3.34375 C -0.90625 -3.363281 -0.984375 -3.390625 -1.046875 -3.421875 C -1.242188 -3.585938 -1.304688 -3.785156 -1.234375 -4.015625 C -0.472656 -5.992188 0.414062 -8.054688 1.4375 -10.203125 C 2.457031 -12.347656 3.476562 -14.4375 4.5 -16.46875 C 4.9375 -17.375 5.367188 -18.253906 5.796875 -19.109375 C 5.960938 -19.441406 6.128906 -19.789062 6.296875 -20.15625 C 6.492188 -20.5625 6.695312 -20.988281 6.90625 -21.4375 Z M 3.515625 -9.1875 C 2.828125 -8.695312 2.226562 -8.09375 1.71875 -7.375 C 1.21875 -6.664062 1.039062 -5.914062 1.1875 -5.125 C 1.257812 -4.664062 1.441406 -4.34375 1.734375 -4.15625 C 2.035156 -3.96875 2.382812 -4.035156 2.78125 -4.359375 C 3.175781 -4.722656 3.570312 -5.1875 3.96875 -5.75 C 4.363281 -6.3125 4.679688 -6.90625 4.921875 -7.53125 C 5.117188 -8.09375 5.238281 -8.578125 5.28125 -8.984375 C 5.320312 -9.398438 5.210938 -9.648438 4.953125 -9.734375 C 4.691406 -9.828125 4.210938 -9.644531 3.515625 -9.1875 Z M 3.515625 -9.1875 "/></g></g><g style="fill:rgb(0%,0%,0%);fill-opacity:1;"><g transform="translate(106.189556, 65.844406)"><path style="stroke:none;" d="M 2.140625 -3.203125 L 2.109375 -3.203125 C 0.804688 -3.210938 -0.0507812 -3.5 -0.46875 -4.0625 C -0.882812 -4.625 -0.867188 -5.375 -0.421875 -6.3125 C -0.0351562 -7.019531 0.441406 -7.640625 1.015625 -8.171875 C 1.210938 -8.359375 1.414062 -8.503906 1.625 -8.609375 C 1.832031 -8.710938 2.066406 -8.765625 2.328125 -8.765625 C 2.472656 -8.796875 2.644531 -8.769531 2.84375 -8.6875 C 2.90625 -8.675781 2.96875 -8.65625 3.03125 -8.625 C 3.1875 -8.65625 3.335938 -8.703125 3.484375 -8.765625 C 3.515625 -8.796875 3.5625 -8.820312 3.625 -8.84375 C 3.925781 -8.957031 4.242188 -9.003906 4.578125 -8.984375 C 4.710938 -8.984375 4.851562 -8.984375 5 -8.984375 C 5.53125 -8.898438 5.925781 -8.675781 6.1875 -8.3125 C 6.457031 -7.957031 6.554688 -7.515625 6.484375 -6.984375 C 6.429688 -6.671875 6.332031 -6.375 6.1875 -6.09375 C 5.144531 -4.238281 3.828125 -3.273438 2.234375 -3.203125 Z M 4.28125 -8.03125 C 3.570312 -8.0625 2.9375 -7.859375 2.375 -7.421875 C 1.820312 -6.984375 1.410156 -6.476562 1.140625 -5.90625 C 0.878906 -5.34375 0.804688 -4.878906 0.921875 -4.515625 C 1.046875 -4.148438 1.421875 -4.046875 2.046875 -4.203125 C 2.765625 -4.421875 3.394531 -4.828125 3.9375 -5.421875 C 4.476562 -6.015625 4.804688 -6.578125 4.921875 -7.109375 C 5.046875 -7.648438 4.832031 -7.957031 4.28125 -8.03125 Z M 4.28125 -8.03125 "/></g></g><g style="fill:rgb(0%,0%,0%);fill-opacity:1;"><g transform="translate(113.350923, 65.844406)"><path style="stroke:none;" d="M 2.140625 -3.203125 L 2.109375 -3.203125 C 0.804688 -3.210938 -0.0507812 -3.5 -0.46875 -4.0625 C -0.882812 -4.625 -0.867188 -5.375 -0.421875 -6.3125 C -0.0351562 -7.019531 0.441406 -7.640625 1.015625 -8.171875 C 1.210938 -8.359375 1.414062 -8.503906 1.625 -8.609375 C 1.832031 -8.710938 2.066406 -8.765625 2.328125 -8.765625 C 2.472656 -8.796875 2.644531 -8.769531 2.84375 -8.6875 C 2.90625 -8.675781 2.96875 -8.65625 3.03125 -8.625 C 3.1875 -8.65625 3.335938 -8.703125 3.484375 -8.765625 C 3.515625 -8.796875 3.5625 -8.820312 3.625 -8.84375 C 3.925781 -8.957031 4.242188 -9.003906 4.578125 -8.984375 C 4.710938 -8.984375 4.851562 -8.984375 5 -8.984375 C 5.53125 -8.898438 5.925781 -8.675781 6.1875 -8.3125 C 6.457031 -7.957031 6.554688 -7.515625 6.484375 -6.984375 C 6.429688 -6.671875 6.332031 -6.375 6.1875 -6.09375 C 5.144531 -4.238281 3.828125 -3.273438 2.234375 -3.203125 Z M 4.28125 -8.03125 C 3.570312 -8.0625 2.9375 -7.859375 2.375 -7.421875 C 1.820312 -6.984375 1.410156 -6.476562 1.140625 -5.90625 C 0.878906 -5.34375 0.804688 -4.878906 0.921875 -4.515625 C 1.046875 -4.148438 1.421875 -4.046875 2.046875 -4.203125 C 2.765625 -4.421875 3.394531 -4.828125 3.9375 -5.421875 C 4.476562 -6.015625 4.804688 -6.578125 4.921875 -7.109375 C 5.046875 -7.648438 4.832031 -7.957031 4.28125 -8.03125 Z M 4.28125 -8.03125 "/></g></g><g style="fill:rgb(0%,0%,0%);fill-opacity:1;"><g transform="translate(120.51229, 65.844406)"><path style="stroke:none;" d="M 10.453125 -6.890625 C 10.523438 -6.785156 10.539062 -6.679688 10.5 -6.578125 C 10.46875 -6.484375 10.40625 -6.394531 10.3125 -6.3125 C 9.6875 -5.757812 8.992188 -5.316406 8.234375 -4.984375 C 6.921875 -4.367188 5.546875 -3.988281 4.109375 -3.84375 C 2.972656 -3.726562 1.890625 -3.898438 0.859375 -4.359375 C 0.484375 -4.523438 0.207031 -4.4375 0.03125 -4.09375 C -0.21875 -3.59375 -0.484375 -3.097656 -0.765625 -2.609375 C -0.898438 -2.328125 -1.050781 -2.035156 -1.21875 -1.734375 C -1.226562 -1.703125 -1.242188 -1.664062 -1.265625 -1.625 C -1.328125 -1.519531 -1.382812 -1.421875 -1.4375 -1.328125 C -1.5 -1.242188 -1.601562 -1.179688 -1.75 -1.140625 C -1.820312 -1.128906 -1.898438 -1.125 -1.984375 -1.125 C -2.066406 -1.125 -2.140625 -1.140625 -2.203125 -1.171875 C -2.253906 -1.210938 -2.300781 -1.269531 -2.34375 -1.34375 C -2.382812 -1.425781 -2.40625 -1.507812 -2.40625 -1.59375 C -2.34375 -1.851562 -2.25 -2.109375 -2.125 -2.359375 C -1.875 -2.929688 -1.628906 -3.5 -1.390625 -4.0625 C -0.773438 -5.476562 -0.128906 -6.878906 0.546875 -8.265625 C 2.398438 -12.097656 4.171875 -15.960938 5.859375 -19.859375 C 5.992188 -20.234375 6.175781 -20.566406 6.40625 -20.859375 C 6.59375 -21.078125 6.84375 -21.140625 7.15625 -21.046875 C 7.476562 -20.910156 7.578125 -20.679688 7.453125 -20.359375 C 7.234375 -19.691406 7 -19.019531 6.75 -18.34375 C 5.5 -15.257812 4.128906 -12.234375 2.640625 -9.265625 C 2.328125 -8.617188 2.210938 -8.210938 2.296875 -8.046875 C 2.390625 -7.878906 2.601562 -7.863281 2.9375 -8 C 3.269531 -8.144531 3.660156 -8.332031 4.109375 -8.5625 C 4.421875 -8.75 4.734375 -8.910156 5.046875 -9.046875 C 5.109375 -9.085938 5.164062 -9.117188 5.21875 -9.140625 C 5.601562 -9.359375 6.015625 -9.472656 6.453125 -9.484375 C 6.617188 -9.484375 6.742188 -9.410156 6.828125 -9.265625 C 6.867188 -9.160156 6.867188 -9.070312 6.828125 -9 C 6.796875 -8.925781 6.75 -8.875 6.6875 -8.84375 C 6.007812 -8.445312 5.320312 -8.066406 4.625 -7.703125 C 4.289062 -7.554688 3.945312 -7.390625 3.59375 -7.203125 C 3.238281 -7.046875 2.890625 -6.875 2.546875 -6.6875 C 2.316406 -6.550781 2.101562 -6.394531 1.90625 -6.21875 C 1.445312 -5.738281 1.492188 -5.34375 2.046875 -5.03125 C 2.503906 -4.832031 2.960938 -4.726562 3.421875 -4.71875 C 3.890625 -4.707031 4.351562 -4.765625 4.8125 -4.890625 C 6.238281 -5.203125 7.578125 -5.71875 8.828125 -6.4375 C 8.921875 -6.488281 9.019531 -6.539062 9.125 -6.59375 C 9.351562 -6.738281 9.597656 -6.867188 9.859375 -6.984375 C 9.960938 -7.035156 10.070312 -7.054688 10.1875 -7.046875 C 10.300781 -7.035156 10.390625 -6.984375 10.453125 -6.890625 Z M 10.453125 -6.890625 "/></g></g><g style="fill:rgb(0%,0%,0%);fill-opacity:1;"><g transform="translate(130.006833, 65.844406)"><path style="stroke:none;" d=""/></g></g><g style="fill:rgb(0%,0%,0%);fill-opacity:1;"><g transform="translate(140.202677, 65.844406)"><path style="stroke:none;" d="M 65.625 -17 C 65.832031 -16.957031 66 -16.867188 66.125 -16.734375 C 66.257812 -16.597656 66.289062 -16.46875 66.21875 -16.34375 C 66.132812 -16.226562 66.039062 -16.15625 65.9375 -16.125 C 65.84375 -16.101562 65.738281 -16.097656 65.625 -16.109375 C 65.476562 -16.109375 65.328125 -16.117188 65.171875 -16.140625 C 63.035156 -16.203125 60.203125 -16.078125 56.671875 -15.765625 C 53.140625 -15.460938 50.289062 -15.160156 48.125 -14.859375 C 46.457031 -14.640625 44.796875 -14.40625 43.140625 -14.15625 C 43.097656 -14.15625 43.046875 -14.144531 42.984375 -14.125 C 42.296875 -14.019531 41.660156 -13.757812 41.078125 -13.34375 C 38.960938 -11.90625 36.773438 -10.597656 34.515625 -9.421875 C 32.265625 -8.253906 29.960938 -7.171875 27.609375 -6.171875 C 23.804688 -4.484375 19.914062 -3.015625 15.9375 -1.765625 C 15.125 -1.546875 14.53125 -1.050781 14.15625 -0.28125 C 12.394531 3.238281 10.554688 6.679688 8.640625 10.046875 C 6.941406 13.035156 5.304688 16.066406 3.734375 19.140625 C 3.734375 19.160156 3.726562 19.175781 3.71875 19.1875 C 3.644531 19.351562 3.5625 19.484375 3.46875 19.578125 C 3.300781 19.710938 3.113281 19.765625 2.90625 19.734375 C 2.78125 19.765625 2.660156 19.765625 2.546875 19.734375 C 2.304688 19.628906 2.1875 19.445312 2.1875 19.1875 C 2.21875 18.757812 2.359375 18.359375 2.609375 17.984375 C 2.617188 17.960938 2.625 17.9375 2.625 17.90625 C 4.207031 15.0625 5.765625 12.21875 7.296875 9.375 C 8.835938 6.53125 10.320312 3.648438 11.75 0.734375 C 11.875 0.484375 11.992188 0.234375 12.109375 -0.015625 C 12.148438 -0.140625 12.195312 -0.269531 12.25 -0.40625 C 12.113281 -0.4375 11.988281 -0.46875 11.875 -0.5 C 11.65625 -0.457031 11.4375 -0.394531 11.21875 -0.3125 C 11.132812 -0.289062 11.054688 -0.265625 10.984375 -0.234375 C 8.210938 0.554688 5.410156 1.234375 2.578125 1.796875 C 0.617188 2.148438 -1.347656 2.394531 -3.328125 2.53125 C -3.429688 2.550781 -3.523438 2.5625 -3.609375 2.5625 C -3.804688 2.582031 -4.003906 2.59375 -4.203125 2.59375 C -4.960938 2.59375 -5.703125 2.472656 -6.421875 2.234375 C -6.972656 2.035156 -7.300781 1.722656 -7.40625 1.296875 C -7.519531 0.867188 -7.390625 0.410156 -7.015625 -0.078125 C -6.523438 -0.648438 -5.941406 -1.125 -5.265625 -1.5 C -3.734375 -2.445312 -2.128906 -3.226562 -0.453125 -3.84375 C 4.046875 -5.539062 8.601562 -7.035156 13.21875 -8.328125 C 13.46875 -8.410156 13.734375 -8.484375 14.015625 -8.546875 C 14.609375 -8.660156 15.160156 -8.832031 15.671875 -9.0625 C 16.179688 -9.289062 16.566406 -9.6875 16.828125 -10.25 C 17.796875 -12.5 18.726562 -14.742188 19.625 -16.984375 C 20.53125 -19.234375 21.367188 -21.515625 22.140625 -23.828125 C 22.140625 -23.847656 22.148438 -23.878906 22.171875 -23.921875 C 22.285156 -24.335938 22.441406 -24.734375 22.640625 -25.109375 C 22.722656 -25.234375 22.828125 -25.316406 22.953125 -25.359375 C 23.085938 -25.410156 23.222656 -25.425781 23.359375 -25.40625 C 23.460938 -25.425781 23.570312 -25.425781 23.6875 -25.40625 C 23.976562 -25.332031 24.148438 -25.132812 24.203125 -24.8125 C 24.203125 -24.195312 24.085938 -23.601562 23.859375 -23.03125 C 23.859375 -23.007812 23.847656 -22.976562 23.828125 -22.9375 C 22.859375 -19.96875 21.769531 -17.050781 20.5625 -14.1875 C 20.25 -13.394531 19.925781 -12.613281 19.59375 -11.84375 C 19.46875 -11.5625 19.347656 -11.269531 19.234375 -10.96875 C 19.078125 -10.625 19.007812 -10.382812 19.03125 -10.25 C 19.0625 -10.125 19.15625 -10.0625 19.3125 -10.0625 C 19.476562 -10.070312 19.671875 -10.117188 19.890625 -10.203125 C 19.960938 -10.222656 20.039062 -10.238281 20.125 -10.25 C 21 -10.476562 21.867188 -10.703125 22.734375 -10.921875 C 24.316406 -11.316406 25.910156 -11.710938 27.515625 -12.109375 C 31.441406 -13.035156 35.394531 -13.828125 39.375 -14.484375 C 40.082031 -14.597656 40.703125 -14.875 41.234375 -15.3125 C 42.367188 -16.164062 43.488281 -17.171875 44.59375 -18.328125 C 45.695312 -19.484375 46.609375 -20.726562 47.328125 -22.0625 C 48.054688 -23.394531 48.382812 -24.765625 48.3125 -26.171875 C 48.238281 -27.578125 47.59375 -28.972656 46.375 -30.359375 C 45.582031 -31.191406 44.679688 -31.890625 43.671875 -32.453125 C 41.546875 -33.585938 38.992188 -34.421875 36.015625 -34.953125 C 33.035156 -35.492188 29.84375 -35.78125 26.4375 -35.8125 C 23.039062 -35.84375 19.632812 -35.664062 16.21875 -35.28125 C 12.800781 -34.90625 9.601562 -34.382812 6.625 -33.71875 C 3.644531 -33.050781 1.085938 -32.289062 -1.046875 -31.4375 C -2.890625 -30.707031 -4.640625 -29.804688 -6.296875 -28.734375 C -6.972656 -28.316406 -7.609375 -27.859375 -8.203125 -27.359375 C -8.796875 -26.867188 -9.328125 -26.304688 -9.796875 -25.671875 C -9.972656 -25.390625 -10.210938 -25.238281 -10.515625 -25.21875 C -10.578125 -25.21875 -10.648438 -25.21875 -10.734375 -25.21875 C -10.742188 -25.21875 -10.757812 -25.21875 -10.78125 -25.21875 C -10.894531 -25.21875 -11.003906 -25.234375 -11.109375 -25.265625 C -11.222656 -25.296875 -11.3125 -25.363281 -11.375 -25.46875 C -11.414062 -25.550781 -11.4375 -25.632812 -11.4375 -25.71875 C -11.4375 -25.800781 -11.425781 -25.875 -11.40625 -25.9375 C -11.25 -26.300781 -11.039062 -26.617188 -10.78125 -26.890625 C -10.519531 -27.160156 -10.253906 -27.425781 -9.984375 -27.6875 C -9.265625 -28.300781 -8.515625 -28.851562 -7.734375 -29.34375 C -6.960938 -29.84375 -6.164062 -30.3125 -5.34375 -30.75 C -3.25 -31.863281 -0.570312 -32.863281 2.6875 -33.75 C 5.957031 -34.644531 9.546875 -35.363281 13.453125 -35.90625 C 17.367188 -36.445312 21.3125 -36.742188 25.28125 -36.796875 C 29.25 -36.847656 32.960938 -36.582031 36.421875 -36 C 39.890625 -35.425781 42.84375 -34.46875 45.28125 -33.125 C 46.363281 -32.53125 47.335938 -31.769531 48.203125 -30.84375 C 49.421875 -29.46875 50.113281 -28.113281 50.28125 -26.78125 C 50.445312 -25.445312 50.257812 -24.148438 49.71875 -22.890625 C 49.1875 -21.640625 48.453125 -20.441406 47.515625 -19.296875 C 46.578125 -18.160156 45.613281 -17.097656 44.625 -16.109375 C 44.5 -16.015625 44.378906 -15.890625 44.265625 -15.734375 C 44.148438 -15.585938 44.097656 -15.460938 44.109375 -15.359375 C 44.128906 -15.265625 44.28125 -15.238281 44.5625 -15.28125 C 47.882812 -15.820312 51.195312 -16.226562 54.5 -16.5 C 57.8125 -16.769531 61.140625 -16.957031 64.484375 -17.0625 C 64.585938 -17.0625 64.675781 -17.0625 64.75 -17.0625 L 64.78125 -17.0625 C 65.0625 -17.0625 65.34375 -17.039062 65.625 -17 Z M 13.359375 -2.609375 C 13.429688 -2.785156 13.566406 -3.039062 13.765625 -3.375 C 14.046875 -3.90625 14.335938 -4.488281 14.640625 -5.125 C 14.953125 -5.769531 15.175781 -6.335938 15.3125 -6.828125 C 15.445312 -7.316406 15.378906 -7.582031 15.109375 -7.625 C 14.929688 -7.59375 14.765625 -7.550781 14.609375 -7.5 C 14.566406 -7.5 14.515625 -7.492188 14.453125 -7.484375 C 13.828125 -7.285156 13.191406 -7.09375 12.546875 -6.90625 C 11.023438 -6.46875 9.5 -6 7.96875 -5.5 C 7.90625 -5.488281 7.832031 -5.460938 7.75 -5.421875 C 5.007812 -4.585938 2.3125 -3.625 -0.34375 -2.53125 C -1.675781 -1.988281 -2.945312 -1.320312 -4.15625 -0.53125 C -4.613281 -0.269531 -4.992188 0.078125 -5.296875 0.515625 C -5.410156 0.691406 -5.441406 0.851562 -5.390625 1 C -5.335938 1.15625 -5.210938 1.269531 -5.015625 1.34375 C -4.609375 1.476562 -4.1875 1.546875 -3.75 1.546875 C -3.375 1.546875 -3 1.53125 -2.625 1.5 C -2.601562 1.5 -2.59375 1.5 -2.59375 1.5 C -0.632812 1.300781 1.296875 0.984375 3.203125 0.546875 C 6.210938 -0.117188 9.191406 -0.898438 12.140625 -1.796875 C 12.179688 -1.816406 12.210938 -1.828125 12.234375 -1.828125 C 12.460938 -1.890625 12.675781 -1.972656 12.875 -2.078125 C 13.070312 -2.179688 13.234375 -2.359375 13.359375 -2.609375 Z M 15.890625 -3.125 C 17.671875 -3.582031 20.09375 -4.4375 23.15625 -5.6875 C 26.226562 -6.945312 29.175781 -8.273438 32 -9.671875 C 34.832031 -11.078125 36.765625 -12.234375 37.796875 -13.140625 C 37.660156 -13.140625 37.539062 -13.140625 37.4375 -13.140625 C 37.394531 -13.140625 37.363281 -13.140625 37.34375 -13.140625 C 31.125 -11.910156 24.96875 -10.445312 18.875 -8.75 C 18.34375 -8.59375 17.976562 -8.269531 17.78125 -7.78125 C 17.40625 -6.988281 17.039062 -6.203125 16.6875 -5.421875 C 16.40625 -4.847656 16.125 -4.265625 15.84375 -3.671875 C 15.8125 -3.585938 15.789062 -3.492188 15.78125 -3.390625 C 15.769531 -3.296875 15.804688 -3.207031 15.890625 -3.125 Z M 15.890625 -3.125 "/></g></g><g style="fill:rgb(0%,0%,0%);fill-opacity:1;"><g transform="translate(178.01901, 65.844406)"><path style="stroke:none;" d="M 6.46875 -8.28125 C 6.394531 -7.664062 6.101562 -7.257812 5.59375 -7.0625 C 5.09375 -6.875 4.929688 -7.125 5.109375 -7.8125 C 5.285156 -8.5 4.976562 -8.671875 4.1875 -8.328125 C 3.394531 -7.992188 2.742188 -7.570312 2.234375 -7.0625 C 1.441406 -6.25 0.738281 -5.375 0.125 -4.4375 C 0.0625 -4.351562 0.0078125 -4.285156 -0.03125 -4.234375 C -0.207031 -3.972656 -0.382812 -3.726562 -0.5625 -3.5 C -0.6875 -3.332031 -0.828125 -3.226562 -0.984375 -3.1875 C -1.140625 -3.144531 -1.296875 -3.140625 -1.453125 -3.171875 C -1.609375 -3.191406 -1.726562 -3.25 -1.8125 -3.34375 C -1.894531 -3.445312 -1.898438 -3.566406 -1.828125 -3.703125 C -1.734375 -3.941406 -1.617188 -4.1875 -1.484375 -4.4375 C -0.671875 -5.9375 0.148438 -7.445312 0.984375 -8.96875 C 1.003906 -8.976562 1.015625 -8.992188 1.015625 -9.015625 C 1.128906 -9.242188 1.269531 -9.457031 1.4375 -9.65625 C 1.613281 -9.851562 1.816406 -9.9375 2.046875 -9.90625 C 2.285156 -9.875 2.445312 -9.734375 2.53125 -9.484375 C 2.625 -9.171875 2.707031 -8.992188 2.78125 -8.953125 C 2.851562 -8.910156 3.015625 -8.941406 3.265625 -9.046875 C 3.804688 -9.242188 4.332031 -9.378906 4.84375 -9.453125 C 5.351562 -9.535156 5.769531 -9.515625 6.09375 -9.390625 C 6.425781 -9.273438 6.550781 -8.90625 6.46875 -8.28125 Z M 6.46875 -8.28125 "/></g></g><g style="fill:rgb(0%,0%,0%);fill-opacity:1;"><g transform="translate(184.762294, 65.844406)"><path style="stroke:none;" d="M 2.140625 -3.203125 L 2.109375 -3.203125 C 0.804688 -3.210938 -0.0507812 -3.5 -0.46875 -4.0625 C -0.882812 -4.625 -0.867188 -5.375 -0.421875 -6.3125 C -0.0351562 -7.019531 0.441406 -7.640625 1.015625 -8.171875 C 1.210938 -8.359375 1.414062 -8.503906 1.625 -8.609375 C 1.832031 -8.710938 2.066406 -8.765625 2.328125 -8.765625 C 2.472656 -8.796875 2.644531 -8.769531 2.84375 -8.6875 C 2.90625 -8.675781 2.96875 -8.65625 3.03125 -8.625 C 3.1875 -8.65625 3.335938 -8.703125 3.484375 -8.765625 C 3.515625 -8.796875 3.5625 -8.820312 3.625 -8.84375 C 3.925781 -8.957031 4.242188 -9.003906 4.578125 -8.984375 C 4.710938 -8.984375 4.851562 -8.984375 5 -8.984375 C 5.53125 -8.898438 5.925781 -8.675781 6.1875 -8.3125 C 6.457031 -7.957031 6.554688 -7.515625 6.484375 -6.984375 C 6.429688 -6.671875 6.332031 -6.375 6.1875 -6.09375 C 5.144531 -4.238281 3.828125 -3.273438 2.234375 -3.203125 Z M 4.28125 -8.03125 C 3.570312 -8.0625 2.9375 -7.859375 2.375 -7.421875 C 1.820312 -6.984375 1.410156 -6.476562 1.140625 -5.90625 C 0.878906 -5.34375 0.804688 -4.878906 0.921875 -4.515625 C 1.046875 -4.148438 1.421875 -4.046875 2.046875 -4.203125 C 2.765625 -4.421875 3.394531 -4.828125 3.9375 -5.421875 C 4.476562 -6.015625 4.804688 -6.578125 4.921875 -7.109375 C 5.046875 -7.648438 4.832031 -7.957031 4.28125 -8.03125 Z M 4.28125 -8.03125 "/></g></g><g style="fill:rgb(0%,0%,0%);fill-opacity:1;"><g transform="translate(191.923661, 65.844406)"><path style="stroke:none;" d="M 2.9375 -11.4375 C 2.644531 -11.144531 2.382812 -11.003906 2.15625 -11.015625 C 1.925781 -11.035156 1.859375 -11.289062 1.953125 -11.78125 C 2.097656 -12.507812 2.425781 -13.171875 2.9375 -13.765625 C 3.039062 -13.867188 3.160156 -13.925781 3.296875 -13.9375 C 3.441406 -13.957031 3.582031 -13.941406 3.71875 -13.890625 C 3.78125 -13.847656 3.835938 -13.789062 3.890625 -13.71875 C 3.953125 -13.65625 3.984375 -13.585938 3.984375 -13.515625 C 3.867188 -12.710938 3.519531 -12.019531 2.9375 -11.4375 Z M 6.265625 -6.96875 C 6.328125 -6.96875 6.378906 -6.953125 6.421875 -6.921875 C 6.472656 -6.898438 6.507812 -6.863281 6.53125 -6.8125 C 6.53125 -6.78125 6.519531 -6.734375 6.5 -6.671875 C 6.488281 -6.617188 6.457031 -6.566406 6.40625 -6.515625 C 6.195312 -6.335938 5.960938 -6.171875 5.703125 -6.015625 C 5.242188 -5.753906 4.796875 -5.484375 4.359375 -5.203125 C 3.203125 -4.472656 2.03125 -3.796875 0.84375 -3.171875 C -0.0820312 -2.671875 -0.71875 -1.957031 -1.0625 -1.03125 C -1.851562 0.832031 -2.6875 2.675781 -3.5625 4.5 C -3.9375 5.351562 -4.351562 6.179688 -4.8125 6.984375 C -5.269531 7.796875 -5.796875 8.582031 -6.390625 9.34375 C -7.535156 10.820312 -9 11.679688 -10.78125 11.921875 C -12.238281 12.097656 -13.648438 12.003906 -15.015625 11.640625 C -16.109375 11.347656 -17.125 10.914062 -18.0625 10.34375 C -18.40625 10.101562 -18.726562 9.84375 -19.03125 9.5625 C -20.394531 8.320312 -20.238281 7.03125 -18.5625 5.6875 C -18 5.25 -17.410156 4.859375 -16.796875 4.515625 C -15.828125 3.972656 -14.847656 3.460938 -13.859375 2.984375 C -12.597656 2.367188 -11.34375 1.765625 -10.09375 1.171875 C -8.019531 0.203125 -5.957031 -0.773438 -3.90625 -1.765625 C -3.507812 -1.960938 -3.1875 -2.117188 -2.9375 -2.234375 C -2.582031 -2.398438 -2.328125 -2.535156 -2.171875 -2.640625 C -2.015625 -2.753906 -1.882812 -2.890625 -1.78125 -3.046875 C -1.6875 -3.203125 -1.570312 -3.453125 -1.4375 -3.796875 C -1.332031 -4.066406 -1.164062 -4.429688 -0.9375 -4.890625 C -0.613281 -5.640625 -0.300781 -6.390625 0 -7.140625 C 0.21875 -7.679688 0.429688 -8.207031 0.640625 -8.71875 C 0.785156 -9.050781 0.96875 -9.347656 1.1875 -9.609375 C 1.40625 -9.835938 1.660156 -9.878906 1.953125 -9.734375 C 2.171875 -9.617188 2.253906 -9.4375 2.203125 -9.1875 C 2.117188 -8.957031 1.96875 -8.550781 1.75 -7.96875 C 1.570312 -7.476562 1.390625 -6.960938 1.203125 -6.421875 C 1.015625 -5.890625 0.863281 -5.429688 0.75 -5.046875 C 0.644531 -4.660156 0.609375 -4.429688 0.640625 -4.359375 C 0.691406 -4.296875 0.820312 -4.304688 1.03125 -4.390625 C 1.238281 -4.484375 1.578125 -4.65625 2.046875 -4.90625 C 2.066406 -4.90625 2.078125 -4.90625 2.078125 -4.90625 C 2.835938 -5.332031 3.582031 -5.753906 4.3125 -6.171875 C 4.582031 -6.316406 4.859375 -6.484375 5.140625 -6.671875 C 5.160156 -6.671875 5.171875 -6.671875 5.171875 -6.671875 C 5.347656 -6.765625 5.523438 -6.847656 5.703125 -6.921875 C 5.878906 -6.992188 6.066406 -7.007812 6.265625 -6.96875 Z M -2.9375 -0.3125 C -2.820312 -0.53125 -2.820312 -0.738281 -2.9375 -0.9375 C -3.175781 -0.957031 -3.394531 -0.894531 -3.59375 -0.75 C -3.632812 -0.738281 -3.679688 -0.722656 -3.734375 -0.703125 C -4.578125 -0.304688 -5.410156 0.0859375 -6.234375 0.484375 C -8.410156 1.515625 -10.578125 2.546875 -12.734375 3.578125 C -13.921875 4.171875 -15.109375 4.804688 -16.296875 5.484375 C -16.796875 5.773438 -17.257812 6.117188 -17.6875 6.515625 C -18.53125 7.265625 -18.628906 7.984375 -17.984375 8.671875 C -17.847656 8.859375 -17.703125 9.007812 -17.546875 9.125 C -16.734375 9.738281 -15.859375 10.210938 -14.921875 10.546875 C -13.992188 10.878906 -13 11.054688 -11.9375 11.078125 C -10.375 11.078125 -9.054688 10.445312 -7.984375 9.1875 C -7.253906 8.332031 -6.640625 7.410156 -6.140625 6.421875 C -5.378906 4.835938 -4.628906 3.242188 -3.890625 1.640625 C -3.578125 0.984375 -3.257812 0.332031 -2.9375 -0.3125 Z M -2.9375 -0.3125 "/></g></g><g style="fill:rgb(0%,0%,0%);fill-opacity:1;"><g transform="translate(197.412693, 65.844406)"><path style="stroke:none;" d="M 7.6875 -5.171875 C 7.164062 -4.660156 6.554688 -4.222656 5.859375 -3.859375 C 5.171875 -3.492188 4.59375 -3.253906 4.125 -3.140625 C 3.65625 -3.035156 3.175781 -2.972656 2.6875 -2.953125 C 1.894531 -2.921875 1.164062 -3.03125 0.5 -3.28125 C -0.59375 -3.71875 -0.972656 -4.554688 -0.640625 -5.796875 C -0.316406 -6.867188 0.320312 -7.707031 1.28125 -8.3125 C 2.238281 -8.914062 3.234375 -9.207031 4.265625 -9.1875 C 4.265625 -9.1875 4.273438 -9.1875 4.296875 -9.1875 C 4.554688 -9.207031 4.800781 -9.191406 5.03125 -9.140625 C 5.425781 -8.992188 5.675781 -8.757812 5.78125 -8.4375 C 5.894531 -8.113281 5.828125 -7.753906 5.578125 -7.359375 C 4.992188 -6.484375 4.207031 -5.992188 3.21875 -5.890625 C 2.5625 -5.828125 1.929688 -5.863281 1.328125 -6 C 1.203125 -6.007812 1.09375 -5.972656 1 -5.890625 C 0.914062 -5.816406 0.863281 -5.71875 0.84375 -5.59375 C 0.664062 -4.820312 0.90625 -4.328125 1.5625 -4.109375 C 2.375 -3.835938 3.21875 -3.835938 4.09375 -4.109375 C 5.09375 -4.429688 6.046875 -5.023438 6.953125 -5.890625 C 7.867188 -6.765625 8.394531 -7.171875 8.53125 -7.109375 C 8.675781 -7.054688 8.722656 -6.890625 8.671875 -6.609375 C 8.535156 -6.171875 8.207031 -5.691406 7.6875 -5.171875 Z M 1.9375 -7.359375 C 1.882812 -7.296875 1.847656 -7.222656 1.828125 -7.140625 C 1.804688 -7.066406 1.835938 -7 1.921875 -6.9375 C 2.234375 -6.757812 2.570312 -6.691406 2.9375 -6.734375 C 3.3125 -6.785156 3.625 -6.925781 3.875 -7.15625 C 4.132812 -7.382812 4.242188 -7.664062 4.203125 -8 C 4.179688 -8.113281 4.117188 -8.1875 4.015625 -8.21875 C 3.921875 -8.25 3.820312 -8.257812 3.71875 -8.25 C 3.050781 -8.132812 2.457031 -7.835938 1.9375 -7.359375 Z M 1.9375 -7.359375 "/></g></g><g style="fill:rgb(0%,0%,0%);fill-opacity:1;"><g transform="translate(205.261875, 65.844406)"><path style="stroke:none;" d="M 9.734375 -7.03125 C 9.773438 -7.03125 9.820312 -7.019531 9.875 -7 C 9.9375 -6.976562 9.988281 -6.945312 10.03125 -6.90625 C 10.15625 -6.789062 10.164062 -6.648438 10.0625 -6.484375 C 9.9375 -6.359375 9.816406 -6.242188 9.703125 -6.140625 C 9.015625 -5.503906 8.242188 -4.96875 7.390625 -4.53125 C 6.066406 -3.851562 4.601562 -3.507812 3 -3.5 C 2.40625 -3.476562 1.789062 -3.578125 1.15625 -3.796875 C 0.0078125 -4.242188 -0.457031 -5.078125 -0.25 -6.296875 C 0.0195312 -7.410156 0.65625 -8.335938 1.65625 -9.078125 C 2.664062 -9.828125 3.75 -10.15625 4.90625 -10.0625 C 5.113281 -10.019531 5.328125 -9.96875 5.546875 -9.90625 C 5.742188 -9.820312 5.890625 -9.703125 5.984375 -9.546875 C 6.085938 -9.390625 6.097656 -9.257812 6.015625 -9.15625 C 5.804688 -8.925781 5.5625 -8.867188 5.28125 -8.984375 C 4.863281 -9.171875 4.476562 -9.222656 4.125 -9.140625 C 3.78125 -9.054688 3.4375 -8.863281 3.09375 -8.5625 C 2.75 -8.300781 2.378906 -7.921875 1.984375 -7.421875 C 1.585938 -6.929688 1.332031 -6.4375 1.21875 -5.9375 C 1.113281 -5.4375 1.34375 -5.023438 1.90625 -4.703125 C 2.53125 -4.429688 3.171875 -4.363281 3.828125 -4.5 C 5.472656 -4.832031 6.992188 -5.457031 8.390625 -6.375 C 8.515625 -6.4375 8.628906 -6.507812 8.734375 -6.59375 C 8.890625 -6.707031 9.046875 -6.800781 9.203125 -6.875 C 9.359375 -6.945312 9.535156 -7 9.734375 -7.03125 Z M 9.734375 -7.03125 "/></g></g><g clip-rule="nonzero" clip-path="url(#clip1)"><g style="fill:rgb(0%,0%,0%);fill-opacity:1;"><g transform="translate(214.257415, 65.844406)"><path style="stroke:none;" d="M 8.4375 -6.515625 C 7.226562 -5.097656 6.046875 -4.050781 4.890625 -3.375 C 3.734375 -2.695312 2.492188 -2.472656 1.171875 -2.703125 C -0.140625 -2.929688 -0.679688 -3.816406 -0.453125 -5.359375 C -0.285156 -6.128906 -0.0625 -6.882812 0.21875 -7.625 C 0.90625 -9.34375 1.609375 -11.050781 2.328125 -12.75 C 2.554688 -13.363281 2.800781 -13.984375 3.0625 -14.609375 C 3.125 -14.742188 3.179688 -14.878906 3.234375 -15.015625 C 3.335938 -15.234375 3.4375 -15.460938 3.53125 -15.703125 C 3.675781 -16.097656 3.519531 -16.300781 3.0625 -16.3125 C 2.800781 -16.3125 2.546875 -16.3125 2.296875 -16.3125 C 2.179688 -16.3125 2.050781 -16.3125 1.90625 -16.3125 C 1.769531 -16.300781 1.628906 -16.285156 1.484375 -16.265625 C 1.253906 -16.242188 1.023438 -16.234375 0.796875 -16.234375 C 0.566406 -16.234375 0.351562 -16.289062 0.15625 -16.40625 C 0.09375 -16.425781 0.046875 -16.460938 0.015625 -16.515625 C -0.015625 -16.566406 -0.03125 -16.625 -0.03125 -16.6875 C -0.0078125 -16.71875 0.0195312 -16.757812 0.0625 -16.8125 C 0.101562 -16.863281 0.15625 -16.894531 0.21875 -16.90625 C 0.414062 -16.988281 0.625 -17.050781 0.84375 -17.09375 C 1.394531 -17.113281 1.945312 -17.132812 2.5 -17.15625 C 2.71875 -17.15625 2.90625 -17.15625 3.0625 -17.15625 C 3.425781 -17.15625 3.691406 -17.164062 3.859375 -17.1875 C 4.035156 -17.21875 4.175781 -17.3125 4.28125 -17.46875 C 4.394531 -17.632812 4.523438 -17.882812 4.671875 -18.21875 C 4.753906 -18.394531 4.851562 -18.59375 4.96875 -18.8125 C 5.257812 -19.445312 5.554688 -20.09375 5.859375 -20.75 C 5.992188 -21.039062 6.132812 -21.328125 6.28125 -21.609375 C 6.394531 -21.890625 6.578125 -22.101562 6.828125 -22.25 C 7.066406 -22.375 7.28125 -22.367188 7.46875 -22.234375 C 7.519531 -22.191406 7.5625 -22.128906 7.59375 -22.046875 C 7.625 -21.972656 7.640625 -21.90625 7.640625 -21.84375 C 7.640625 -21.488281 7.550781 -21.140625 7.375 -20.796875 C 7.332031 -20.722656 7.289062 -20.640625 7.25 -20.546875 C 7.132812 -20.222656 7.007812 -19.894531 6.875 -19.5625 C 6.613281 -18.945312 6.363281 -18.320312 6.125 -17.6875 C 6.0625 -17.5625 6.054688 -17.453125 6.109375 -17.359375 C 6.171875 -17.273438 6.265625 -17.234375 6.390625 -17.234375 C 7.023438 -17.210938 7.648438 -17.203125 8.265625 -17.203125 C 8.578125 -17.203125 8.890625 -17.203125 9.203125 -17.203125 C 10.191406 -17.191406 10.585938 -17.054688 10.390625 -16.796875 C 10.253906 -16.640625 10.109375 -16.550781 9.953125 -16.53125 C 9.796875 -16.507812 9.632812 -16.507812 9.46875 -16.53125 C 9.375 -16.53125 9.273438 -16.53125 9.171875 -16.53125 C 8.171875 -16.46875 7.175781 -16.425781 6.1875 -16.40625 C 5.726562 -16.40625 5.421875 -16.203125 5.265625 -15.796875 C 5.097656 -15.398438 4.941406 -15.003906 4.796875 -14.609375 C 4.566406 -14.085938 4.351562 -13.578125 4.15625 -13.078125 C 3.957031 -12.609375 3.757812 -12.132812 3.5625 -11.65625 C 3.050781 -10.457031 2.554688 -9.25 2.078125 -8.03125 C 1.785156 -7.238281 1.550781 -6.425781 1.375 -5.59375 C 1 -4.09375 1.582031 -3.519531 3.125 -3.875 C 4.632812 -4.226562 6.21875 -5.316406 7.875 -7.140625 C 8.59375 -7.597656 8.78125 -7.390625 8.4375 -6.515625 Z M 8.4375 -6.515625 "/></g></g></g></g></svg>